<svg xmlns="http://www.w3.org/2000/svg" viewBox="0 0 64 64">
  <!-- Background Circle -->
  <circle cx="32" cy="32" r="30" fill="#3b8132" />
  
  <!-- Barn/House Silhouette -->
  <path d="M32 12L16 24v24h32V24L32 12z" fill="#e74c3c" />
  
  <!-- Roof Line -->
  <path d="M32 12L16 24h32L32 12z" fill="#c0392b" />
  
  <!-- Barn Door -->
  <rect x="27" y="36" width="10" height="12" fill="#f39c12" />
  
  <!-- Cow Silhouette -->
  <path d="M18 34c0-1.1-.9-2-2-2s-2 .9-2 2 .9 2 2 2 2-.9 2-2zm32 0c0-1.1-.9-2-2-2s-2 .9-2 2 .9 2 2 2 2-.9 2-2zm-21 10c0-3.9-3.1-7-7-7s-7 3.1-7 7h14zm16 0c0-3.9-3.1-7-7-7s-7 3.1-7 7h14z" fill="white" />
  
  <!-- Chicken Silhouette -->
  <path d="M22 28c-1.1 0-2 .9-2 2s.9 2 2 2 2-.9 2-2-.9-2-2-2zm0 1c.6 0 1 .4 1 1s-.4 1-1 1-1-.4-1-1 .4-1 1-1z" fill="white" />
  
  <!-- Wheat Stalks -->
  <path d="M48 33c.8-1 1.2-2.2 1-3.5-.2-1.3-1-2.3-2-3-1-.7-2.2-1-3.5-.8-1.3.2-2.3 1-3 2 .8-1 1.2-2.2 1-3.5-.2-1.3-1-2.3-2-3-1-.7-2.2-1-3.5-.8-1.3.2-2.3 1-3 2 .8-1 1.2-2.2 1-3.5-.2-1.3-1-2.3-2-3-1-.7-2.2-1-3.5-.8-1.3.2-2.3 1-3 2 .8-1 1.2-2.2 1-3.5-.2-1.3-1-2.3-2-3-1-.7-2.2-1-3.5-.8-1.3.2-2.3 1-3 2 .8-1 1.2-2.2 1-3.5" stroke="#f6d365" stroke-width="1.5" fill="none" />
</svg>